<svg xmlns="http://www.w3.org/2000/svg" xmlns:xlink="http://www.w3.org/1999/xlink" xmlns:xodm="http://www.corel.com/coreldraw/odm/2003" xml:space="preserve" version="1.1" style="shape-rendering:geometricPrecision;text-rendering:geometricPrecision;image-rendering:optimizeQuality;" viewBox="0 0 100000 125000" x="0px" y="0px" fill-rule="evenodd" clip-rule="evenodd"><defs><style type="text/css">
   
    .fil0 {fill:black;fill-rule:nonzero}
   
  </style></defs><g><path class="fil0" d="M57938.26 26901.24c-2619.84,-520.99 -5126.78,-770.32 -7800.16,-711.02 -2520.37,55.93 -4974.16,381.11 -7334.37,947.26 -28.22,9.12 -57.15,16.2 -86.57,21.11 -6516.85,1581.01 -12316,5000.52 -16824.67,9666.68 -6155.29,6370.34 -9904.98,15061.97 -9793.15,24567.68 1713.14,-1624.71 3508.14,-3093.29 5368.47,-4410.83 954.76,-7117.14 4454.9,-13463.5 9562.3,-18067.04 5096.39,-4593.63 11795.12,-7454.88 19163.46,-7618.37 3251.34,-72.14 6493.2,388.81 9590.18,1382.73 -171.78,-736.42 -365.71,-1470.52 -583.01,-2201.34 -357.42,-1202.13 -777.57,-2395.62 -1262.48,-3576.86zm6582.8 31387.9c-1045.02,-364.12 -2191.38,-727.74 -3301.98,-1042.56 -660.35,-187.17 -1305.71,-356.6 -1906.59,-497.97 -898.12,2493.37 -2006.37,4903.35 -3299.27,7191.86 -1375.04,2433.91 -2953.26,4722.41 -4704.07,6820 -18.24,21.78 -37.71,41.93 -58.18,60.45 -1651.49,1908.74 -3645.25,3673.73 -5560.57,5315.42 -1762.77,1552.1 -3868.81,3157.96 -6146.19,4577.75 -1769.51,1103.17 -3646.72,2095.49 -5552.66,2865.25 2003.9,1441.11 4207.27,2621.7 6560.33,3494.33 1751,-926.75 3426.03,-1956.15 5022.57,-3076.12 1438.9,-1009.4 2809.59,-2090.51 4110.54,-3234.55 1174.63,-1148.53 2392.44,-2525.96 3392.54,-3713.33 2729.16,-3240.39 5426.76,-6726.36 7531.78,-10373.26 1534.66,-2658.78 2853.65,-5466.47 3911.75,-8387.27zm-7278.58 -3134.13c356.34,35.89 764.89,98.84 1210.95,183.66 26.38,4.38 52.76,8.75 79.13,13.18 22.96,3.82 45.39,8.91 67.23,15.16 881.57,173.77 1898.59,427.82 2943.43,723.96 1860.26,527.31 3825.68,1191.61 5274.16,1773.52 2060.71,797.41 4071.38,1751.58 6007.28,2864.23 1954.8,1123.51 3827.27,2405.47 5591.51,3847.25 222.57,-1486.84 328.97,-3009.56 309.57,-4558.42 -8.99,-719.5 -45.1,-1432.05 -106.96,-2136.79 -1739.46,-1246.43 -3537.13,-2351.48 -5378.92,-3320.04 -1962.59,-1032.08 -3978.13,-1910.98 -6029.33,-2642.53 -17.03,-5.99 -33.61,-12.7 -49.74,-20.04 -914.88,-340.89 -2045.47,-680.89 -3170.63,-984.73 -1565.68,-422.82 -3105.69,-771.44 -4045,-956.29 -3127.59,-587.81 -6282.93,-866.65 -9410.92,-855.73 -3181.92,11.12 -6341.19,320.97 -9419.53,909.3 196.15,975.09 426.72,1940.14 690.73,2893.62 242.54,876.01 513.21,1742.3 810.66,2597.82 2601.44,-473.41 5230.94,-726.83 7844.7,-760.93 2287.42,-29.84 4557.73,108.31 6781.68,413.8zm4116.51 -6125.84c862.59,192.43 1899.22,442.56 2941.2,723.94 802.5,216.7 1611.99,453.01 2353.98,697.47 1410.66,-7655.01 969.36,-15807.07 -2017.53,-23908.77 -2688.01,-7291.03 -7439.28,-14546.91 -14758.04,-21371.84 -3706.65,3763.92 -6719.44,7623.46 -9107.05,11519.83 -2402.68,3921.04 -4175.88,7882.36 -5389.4,11823.46 2149.02,-1032.55 4416.28,-1858.27 6776.13,-2450.73 802.53,-2261.54 1921.36,-4660.81 3256.45,-6876.68 1272.68,-2112.24 2746.19,-4062.98 4335.75,-5577.08 240,-228.31 619.61,-218.85 847.92,21.12l2.93 3.15c4855.04,5032.51 8014.82,10669.65 9750.32,16506.83 1854.11,6236.1 2079.17,12696.87 1007.34,18889.3zm-15663.83 25517.29c1455.88,-1271.31 2918.07,-2602.55 4222.18,-4030.24 -4267.35,-4994.95 -7495,-10890.71 -9267.5,-17292.46 -1616.17,-5837.09 -2022.58,-12094.53 -905.58,-18473.13 -2258.76,963.17 -4367.9,2210.16 -6282.8,3695.28 -267.95,3278.48 -177.09,6500.64 230.41,9630.22 429.47,3298.57 1211.01,6503.59 2295.06,9571.56 10.57,29.96 18.61,60.2 24.26,90.47 15.54,29.19 28.93,60.02 39.76,92.42 1029.37,3082.63 2405.92,6128.75 4114.48,9052.63 1569.47,2685.84 3416.77,5262.58 5529.73,7663.25zm10479.09 575.35c-9.39,15.85 -19.61,31.37 -30.59,46.52 3613.82,2991.91 7780.66,5397.58 12383,6993.46 3190.39,-2676.12 5786.79,-6038.71 7562.65,-9853.5 935.96,-2010.56 1643.16,-4145.54 2088.73,-6370.36 -1869.41,-1582.39 -3863.77,-2972.01 -5949.98,-4171.04 -2104.75,-1209.7 -4310.61,-2229.41 -6582.84,-3061.16 -1080.75,2980.99 -2428.72,5848.98 -3997.76,8567.28 -1611.67,2792.2 -3452.7,5421.49 -5473.21,7848.8zm-775.33 987.86c-376.52,469.41 -857.39,1059.77 -1405.38,1710.4 -722.86,858.24 -1554.65,1811.4 -2400.24,2707.9 5837.72,4628.99 13067.31,8035.39 21474.69,9465.77 7612.18,1295.1 16189.6,972.13 25573.94,-1524.98 -1373.23,-5048.91 -3172.3,-9559.01 -5315.15,-13559.12 -2129.75,-3975.62 -4600.77,-7450.83 -7331.95,-10453.63 -256.59,2222.22 -717.28,4384.9 -1363.05,6468.31 1431.65,1832.78 2729.71,3826.6 3869.59,5983.21 1122.83,2124.31 2090.92,4406.95 2880.64,6849.58 9.64,26.63 17.56,54.24 23.49,82.77 67.45,324.31 -140.76,641.89 -465.05,709.34 -5262.03,1109.93 -10297.02,1254.62 -15013.34,608.41 -17.98,-1.7 -35.92,-4.15 -53.75,-7.46 -1386.44,-191.81 -2745.33,-451.78 -4074.22,-775.95 -6202.62,-1513.01 -11747.91,-4417.69 -16400.22,-8264.55zm14458.94 6487.32c730.89,224.55 1472.04,429.02 2223.14,612.24 1200.64,292.88 2426.81,531.77 3676.56,713.53 2946.87,-3183.38 5306.84,-6913.35 6908.86,-11013.32 1579.63,-4042.6 2422.54,-8443.08 2365.06,-13031.82 -81.61,-6513.74 -1967.29,-12566.59 -5176.29,-17694.25 -3143.19,-5022.5 -7557.71,-9155.33 -12790.72,-11962.19 620.94,2318.01 1048.22,4632.74 1296.94,6932 48.75,19.73 95.71,46.18 139.54,79.62 3489.06,2661.99 6357.49,6101.28 8348.41,10069.79 1915.78,3818.8 3016.98,8126.25 3074.28,12700.87 57.24,4570.75 -931.75,8918.16 -2744.49,12812.18 -1742.77,3743.72 -4249.28,7072.4 -7321.29,9781.35zm7350.61 1509.82c4060.58,439.79 8356.48,278.5 12828.23,-597.93 -727.38,-2140.23 -1598.91,-4154.06 -2596.97,-6042.33 -972.88,-1840.6 -2067.05,-3561.7 -3266.06,-5164.21 -124.49,350.48 -254.25,698.51 -389.22,1043.99 -1552.23,3972.51 -3792.75,7609.39 -6575.98,10760.48zm22289.79 5371.45c-9776.93,2680.07 -18710.44,3046.27 -26627.57,1699.27 -1062.55,-180.77 -2106.63,-392.58 -3132.11,-633.65 -2723.49,1765.35 -5696.49,3173.25 -8853.01,4155.39 -3125.04,972.32 -6435.95,1529.58 -9869.18,1605.76 -6697.37,148.62 -12987.53,-1558.86 -18382.91,-4651.92 -4712.67,1454.08 -9850.29,2263.99 -15382.58,2277.59 -5225.75,12.85 -10798.2,-685.85 -16690.52,-2224.31 -583.08,-152.22 -659.29,-484.97 -530.94,-1023.98 2459.63,-10329.25 6666.46,-18522.13 12007.37,-24948.72 932.31,-1121.85 1898.43,-2186.98 2894.89,-3196.41 -6.87,-161.49 -12.96,-334.29 -18.23,-518.45 -5.34,-186.58 -9.32,-381.62 -11.85,-585.01 -123.32,-9845.48 3755.56,-18846.46 10126.52,-25440 2584.01,-2674.28 5578.09,-4952.81 8881.5,-6731.29l1.28 -4.79c1242.61,-4396.06 3157.42,-8820.58 5836.57,-13192.72 2527.23,-4124.27 5730.85,-8198.81 9687.47,-12155.15 234.79,-234.8 615.46,-234.8 850.25,0 3.05,3.04 6.02,6.11 8.97,9.2 7694.03,7068.95 12670.26,14615.58 15469.87,22209.36 309.62,839.79 592.31,1680.11 849.28,2520.33 36.62,10.14 72.78,23.87 108.06,41.41 5815.52,2904.55 10716.89,7368.21 14153.17,12859.04 3319.58,5304.33 5270.31,11569.15 5354.81,18314.32 12.59,1006.47 -16.71,2004 -86.08,2990.99 3088.28,3249.47 5870.63,7067.64 8240.42,11491.41 2268.85,4235.27 4157.7,9022.15 5572.51,14392.32 84.31,320.41 -107.08,648.5 -427.49,732.82 -10.16,2.69 -20.3,5.05 -30.47,7.19zm-31368.35 659.65c-2324.01,-627.73 -4546.99,-1408.08 -6663.65,-2323.45 -1627.79,666.38 -3329.84,1192.45 -5091.22,1562.62 -1756.69,369.19 -3574.17,582.23 -5437.62,623.59 -7299.35,161.95 -14009.78,-2352.48 -19200.96,-6645.16 -5032.64,-4161.57 -8637.81,-9995.88 -9968.43,-16684.37 -913.07,798.4 -1794.9,1641.31 -2641.21,2529.28 -536.15,562.51 -1058.1,1143.16 -1564.99,1741.76 2172.93,7183.69 6636.51,13339.79 12534.8,17641.07 5835.97,4255.84 13077.83,6697.37 20896.27,6523.9 3311.11,-73.48 6510.36,-612.8 9535.65,-1554.11 2690.45,-837.1 5238.63,-1990.41 7601.36,-3415.13zm-8196.73 -3018.41c-3343.51,-1587.61 -6405.07,-3517.65 -9162.97,-5714.25 -1419.23,1268.11 -2921.61,2463.16 -4505.23,3574.09 -1328.49,931.94 -2717.91,1806.29 -4167.26,2616.62 2779.64,848.4 5743.54,1274.99 8816.19,1206.81 1781.25,-39.52 3525.09,-244.55 5216.84,-600.08 1301.54,-273.55 2571.26,-636.92 3802.43,-1083.19zm-15146.47 -11787.72c-2164.47,-2460.06 -4055.03,-5096.94 -5659.44,-7842.58 -1637.99,-2803.1 -2980.4,-5725.79 -4014.2,-8694.9 -4400.41,1629.37 -8580.32,3956.51 -12291.18,6986.11 1163.63,6683.71 4689.76,12522.93 9680.27,16649.68 122.15,101.01 245.25,200.94 369.14,299.88 2057.93,-768.39 4108.54,-1831.89 6038.74,-3035.23 2170.23,-1353.01 4181.56,-2880.45 5876.67,-4362.96zm23014.45 -24476.99c2037.91,736.51 4042.5,1616.06 5997.72,2644.28 1581.48,831.66 3128.97,1759.54 4633.94,2786.42 -437.12,-3002.28 -1348.26,-5843.54 -2654.54,-8447.36 -1765.42,-3519.08 -4254.41,-6605.83 -7271.15,-9071.6 297.91,4111.73 33.11,8164.56 -705.97,12088.26zm-26905.5 -2021.58c3148.49,-601.53 6381.19,-918.31 9638.58,-929.69 3217.63,-11.26 6453.96,274.32 9651.41,876.39 830.54,-4829.83 849.36,-9825.32 -110.11,-14738.69 -3.45,-1.13 -6.89,-2.27 -10.34,-3.44 -3167.57,-1103.79 -6495.47,-1617.56 -9848.14,-1543.19 -3213.26,71.3 -6294.25,678.67 -9159.04,1734.26 -965.09,4986.22 -966.28,9904.61 -162.36,14604.36zm-31141.66 36459.69c2536.77,380.42 5029.26,530.45 7463.46,472.94 2409.3,-56.92 4768.42,-318.15 7063.04,-761.22 -3399.43,-3670.75 -6027.73,-8070.74 -7626.3,-12950.55 -2950.54,3751.37 -5325.06,8162.93 -6900.2,13238.83zm15515.64 737.45c-2586.9,546.74 -5267.81,868.26 -8024.01,933.38 -2662.34,62.91 -5387.15,-114.51 -8156.54,-560.43 -399.04,-64.21 -842.34,-254.51 -683.69,-794.4 2028.17,-6910.52 5484.5,-12652.48 9852.37,-17235.26 4662.09,-4891.45 10358.32,-8458.95 16461.63,-10715.22 -614.82,-1787.77 -1129.66,-3622.18 -1535.21,-5495.16 -7485.35,2760.86 -14508.42,7455.5 -20226.67,14336.13 -5157.11,6205.45 -9256.99,14194.08 -11684.75,24151.76 5642.62,1439.27 10976.35,2093.96 15978.13,2081.66 4998.52,-12.27 9670.81,-691.67 13992.8,-1920.02 -631.06,-401.46 -1248.73,-822.12 -1851.69,-1261.84 -1463.57,-1067.27 -2841.67,-2244.81 -4122.37,-3520.6zm32857.37 -29529.13c-2505.03,-408.09 -5070.62,-595.79 -7652.12,-562.13 -2472.93,32.28 -4966.85,267.73 -7442.56,707.03 1798.49,4732.67 4423.54,9112.9 7678.33,12953.22 1583.55,-1942.75 3011.63,-4036.88 4259.71,-6246.07 1229.9,-2176.99 2289.84,-4472.54 3156.64,-6852.05zm-25184.72 -5528.17c-172.2,-905.78 -318.88,-1820.04 -438.91,-2741.92 -371.58,-2853.77 -488.17,-5773.94 -319.62,-8733.65 -117.56,102.54 -234.53,205.71 -350.37,310.13 -4643.21,4185.15 -7902.44,9865.93 -9012.46,16250.21 3222.62,-2122.26 6623.54,-3809.21 10121.36,-5084.77zm10614.56 -25231.92c2123.03,-443.16 4314.85,-699.02 6557.75,-748.79 2426.53,-53.81 4857.7,136.09 7245.2,573.59 -1704.68,-3736.08 -4080.56,-7332.34 -7209.7,-10667.08 -1343.81,1369.08 -2600.12,3070.66 -3706.6,4907.11 -1150.95,1910.25 -2135.98,3961.92 -2886.65,5935.17z"/></g><text x="0" y="100015" fill="#000000" font-size="5px" font-weight="bold" font-family="'Helvetica Neue', Helvetica, Arial-Unicode, Arial, Sans-serif">Created by Oleksandr Panasovskyi</text><text x="0" y="100020" fill="#000000" font-size="5px" font-weight="bold" font-family="'Helvetica Neue', Helvetica, Arial-Unicode, Arial, Sans-serif">from the Noun Project</text></svg>